<?xml version="1.0" encoding="UTF-8"?>
<svg width="248px" height="213px" viewBox="0 0 248 213" version="1.1" xmlns="http://www.w3.org/2000/svg" xmlns:xlink="http://www.w3.org/1999/xlink">
    <!-- Generator: Sketch 42 (36781) - http://www.bohemiancoding.com/sketch -->
    <title>mining crest</title>
    <desc>Created with Sketch.</desc>
    <defs>
        <path d="M11.3484774,0.0646764565 C11.3484774,0.0646764565 7.25714159,3.62660102 4.8988106,5.98493201 C2.54047962,8.343263 0.0537173834,11.2332928 0.0537173834,11.2332928 C0.0537173834,11.2332928 3.65469419,13.060742 7.56138966,16.9674374 C11.4680851,20.8741329 17.3711838,25.5501086 17.3711838,25.5501086 C17.3711838,25.5501086 20.0487955,28.0734721 20.8491215,28.8737981 C21.6494475,29.6741241 28.1301601,33.1424213 33.7741087,38.78637 C39.4180573,44.4303186 108.237107,112.118323 109.851811,113.733027 C111.466515,115.347732 113.542493,119.712597 115.069289,119.568479 C116.596085,119.424362 120.447552,115.865378 120.491343,113.964727 C120.535134,112.064075 118.635789,112.966362 114.795924,109.126496 C110.956058,105.286631 42.5977927,36.6865355 39.4167501,33.5054929 C36.2357075,30.3244503 30.6662686,22.2033799 29.3092438,20.8463551 C27.9522191,19.4893303 19.3535348,10.3759407 17.0917723,7.51548604 C14.8300099,4.65503137 11.3484774,0.0646764565 11.3484774,0.0646764565 Z" id="path-1"></path>
        <mask id="mask-3" maskContentUnits="userSpaceOnUse" maskUnits="objectBoundingBox" x="-1" y="-1" width="122.438365" height="121.507288">
            <rect x="-0.946282617" y="-0.935323544" width="122.438365" height="121.507288" fill="white"></rect>
            <use xlink:href="#path-1" fill="black"></use>
        </mask>
        <path d="M46.1817766,35.1104552 C46.490273,35.4189516 35.7281922,46.5091366 35.2710031,46.4529275 C34.813814,46.3967184 31.2729679,42.8310357 30.4618576,43.265349 C29.6507473,43.6996623 20.2798162,49.6388467 13.7870376,59.6130452 C7.29425897,69.5872436 1.39129826,79.2839406 1.31090619,79.9813256 C1.23051411,80.6787105 -0.221608628,80.8644946 0.189502074,79.8017506 C0.600612776,78.7390065 7.74586711,60.5444168 14.3450436,51.5821708 C20.94422,42.6199248 26.1192149,37.5135573 26.926567,36.7062052 C27.7339191,35.8988531 35.8852182,27.5841554 36.4489431,27.0204305 C37.0126681,26.4567056 47.9801408,16.0006702 60.4077428,9.2554155 C72.8353449,2.51016077 82.2085382,0.160163109 83.0474262,0.167352644 C83.8863143,0.174542179 83.696772,0.847744124 82.4868059,1.6397368 C81.2768397,2.43172948 66.7864947,9.70802943 57.7015364,16.069461 C48.6165781,22.4308926 43.1517143,29.6709181 43.3061259,30.2544142 C43.4605375,30.8379104 45.1692292,34.0979077 46.1817766,35.1104552 Z" id="path-4"></path>
        <mask id="mask-6" maskContentUnits="userSpaceOnUse" maskUnits="objectBoundingBox" x="-1" y="-1" width="85.4448324" height="82.3842523">
            <rect x="-0.883652512" y="-0.832663795" width="85.4448324" height="82.3842523" fill="white"></rect>
            <use xlink:href="#path-4" fill="black"></use>
        </mask>
        <path d="M119.092317,11.3577518 C119.092317,11.3577518 115.54319,7.28111544 113.193332,4.93125749 C110.843474,2.58139955 107.963827,0.103571793 107.963827,0.103571793 C107.963827,0.103571793 106.142944,3.69161096 102.250284,7.58427039 C98.357625,11.4769298 93.6984491,17.3588198 93.6984491,17.3588198 C93.6984491,17.3588198 91.1841516,20.0268113 90.386701,20.8242619 C89.5892504,21.6217125 86.1334142,28.079141 80.5097432,33.702812 C74.8860722,39.326483 7.44125808,107.898278 5.83235514,109.507181 C4.2234522,111.116084 -0.125730595,113.184604 0.0178691211,114.705914 C0.161468837,116.227224 3.70766546,120.064854 5.60148848,120.108487 C7.49531149,120.152121 6.59626656,118.2596 10.4223361,114.433531 C14.2484056,110.607461 82.6020334,42.4947942 85.7716471,39.3251805 C88.9412608,36.1555668 97.0331536,30.6061378 98.3853029,29.2539886 C99.7374522,27.9018393 108.818099,19.3340485 111.668277,17.0804122 C114.518454,14.8267758 119.092317,11.3577518 119.092317,11.3577518 Z" id="path-7"></path>
        <mask id="mask-9" maskContentUnits="userSpaceOnUse" maskUnits="objectBoundingBox" x="-1" y="-1" width="121.07792" height="122.005653">
            <rect x="-0.98560332" y="-0.896428207" width="121.07792" height="122.005653" fill="white"></rect>
            <use xlink:href="#path-7" fill="black"></use>
        </mask>
        <path d="M45.4096112,46.0508496 C45.1022232,46.3582377 34.0518831,35.634823 34.1078902,35.1792765 C34.1638974,34.72373 37.7167693,31.1956055 37.2840164,30.3874094 C36.8512635,29.5792132 30.9334175,20.2419501 20.9950545,13.7724989 C11.0566914,7.30304762 1.39483286,1.42129516 0.699953504,1.34119191 C0.00507415125,1.26108867 -0.18004249,-0.185816862 0.878883309,0.223816796 C1.93780911,0.633450454 20.0670291,7.75303321 28.9970754,14.3285 C37.9271217,20.9039669 43.0151429,26.0603689 43.8195944,26.8648204 C44.6240459,27.6692719 52.9088703,35.7912849 53.4705699,36.3529844 C54.0322695,36.914684 64.4507382,47.8427527 71.1717585,60.2257046 C77.8927788,72.6086566 80.2343333,81.9481737 80.2271696,82.7840478 C80.2200059,83.6199219 79.5492227,83.4310606 78.7600755,82.2254416 C77.9709283,81.0198227 70.7207707,66.5815388 64.3821946,57.529221 C58.0436184,48.4769033 50.829605,43.0316737 50.2482053,43.1855306 C49.6668055,43.3393874 46.4185207,45.0419401 45.4096112,46.0508496 Z" id="path-10"></path>
        <mask id="mask-12" maskContentUnits="userSpaceOnUse" maskUnits="objectBoundingBox" x="-1" y="-1" width="82.0954466" height="85.1450306">
            <rect x="-0.868260571" y="-0.849074959" width="82.0954466" height="85.1450306" fill="white"></rect>
            <use xlink:href="#path-10" fill="black"></use>
        </mask>
        <filter x="-50%" y="-50%" width="200%" height="200%" filterUnits="objectBoundingBox" id="filter-13">
            <feOffset dx="2" dy="2" in="SourceAlpha" result="shadowOffsetOuter1"></feOffset>
            <feGaussianBlur stdDeviation="0.5" in="shadowOffsetOuter1" result="shadowBlurOuter1"></feGaussianBlur>
            <feColorMatrix values="0 0 0 0 0.290196078   0 0 0 0 0.290196078   0 0 0 0 0.290196078  0 0 0 0.15 0" type="matrix" in="shadowBlurOuter1" result="shadowMatrixOuter1"></feColorMatrix>
            <feMerge>
                <feMergeNode in="shadowMatrixOuter1"></feMergeNode>
                <feMergeNode in="SourceGraphic"></feMergeNode>
            </feMerge>
        </filter>
        <path d="M87.4749194,170.495855 L80.5904939,175.110435 L74.5120446,169.474718 L66.9911604,172.954535 L61.8683588,166.436451 L53.896205,168.695821 L49.8551915,161.455866 L41.628069,162.439155 L38.7683467,154.655603 L30.4888346,154.338598 L28.8808194,146.203105 L20.7527868,144.593613 L20.4360734,136.306501 L12.6596593,133.444154 L13.6420462,125.209479 L6.40873175,121.164756 L8.66602934,113.185284 L2.15392283,108.05778 L5.63054895,100.529992 L-1.65978342e-14,94.4459628 L4.61034857,87.5552177 L-1.65978342e-14,80.6644726 L5.63054895,74.5804435 L2.15392283,67.0526555 L8.66602934,61.9251513 L6.40873175,53.9456795 L13.6420462,49.9009565 L12.6596593,41.6662818 L20.4360734,38.8039344 L20.7527868,30.5168221 L28.8808194,28.9073308 L30.4888346,20.771837 L38.7683467,20.4548328 L41.628069,12.6712803 L49.8551915,13.654569 L53.896205,6.4146147 L61.8683588,8.6739844 L66.9911604,2.15590004 L74.5120446,5.63571755 L80.5904939,-4.34652314e-14 L87.4749194,4.61458068 L94.3593448,-4.34652314e-14 L100.437794,5.63571755 L107.958678,2.15590004 L113.08148,8.6739844 L121.053634,6.4146147 L125.094647,13.654569 L133.32177,12.6712803 L136.181492,20.4548328 L144.461004,20.771837 L146.069019,28.9073308 L154.197052,30.5168221 L154.513765,38.8039344 L162.290179,41.6662818 L161.307793,49.9009565 L168.541107,53.9456795 L166.283809,61.9251513 L172.795916,67.0526555 L169.31929,74.5804435 L174.949839,80.6644726 L170.33949,87.5552177 L174.949839,94.4459628 L169.31929,100.529992 L172.795916,108.05778 L166.283809,113.185284 L168.541107,121.164756 L161.307793,125.209479 L162.290179,133.444154 L154.513765,136.306501 L154.197052,144.593613 L146.069019,146.203105 L144.461004,154.338598 L136.181492,154.655603 L133.32177,162.439155 L125.094647,161.455866 L121.053634,168.695821 L113.08148,166.436451 L107.958678,172.954535 L100.437794,169.474718 L94.3593448,175.110435 L87.4749194,170.495855 Z M87.6869698,151.075141 C122.69529,151.075141 151.075141,122.69529 151.075141,87.6869698 C151.075141,52.6786497 122.69529,24.2987989 87.6869698,24.2987989 C52.6786497,24.2987989 24.2987989,52.6786497 24.2987989,87.6869698 C24.2987989,122.69529 52.6786497,151.075141 87.6869698,151.075141 Z" id="path-14"></path>
        <path d="M3.25549316,54.4859501 C-1.31032487,63.8164643 -4.19590582,79.2523092 -4.19590582,79.2523092 L13.478149,70.8835245 L27.0397996,87.2810988 C27.0397996,87.2810988 28.3610869,75.3445263 32.6864983,65.0965183 C32.6864983,65.0965183 3.25549316,54.4859501 3.25549316,54.4859501 Z" id="path-16"></path>
        <filter x="-50%" y="-50%" width="200%" height="200%" filterUnits="objectBoundingBox" id="filter-17">
            <feOffset dx="2" dy="2" in="SourceAlpha" result="shadowOffsetOuter1"></feOffset>
            <feGaussianBlur stdDeviation="0.5" in="shadowOffsetOuter1" result="shadowBlurOuter1"></feGaussianBlur>
            <feColorMatrix values="0 0 0 0 0.290221632   0 0 0 0 0.290175289   0 0 0 0 0.290237457  0 0 0 1 0" type="matrix" in="shadowBlurOuter1"></feColorMatrix>
        </filter>
        <path d="M148.858773,54.4859501 C144.292955,63.8164643 141.407374,79.2523092 141.407374,79.2523092 L159.081429,70.8835245 L172.64308,87.2810988 C172.64308,87.2810988 173.964367,75.3445263 178.289779,65.0965183 C178.289779,65.0965183 148.858773,54.4859501 148.858773,54.4859501 Z" id="path-18"></path>
        <filter x="-50%" y="-50%" width="200%" height="200%" filterUnits="objectBoundingBox" id="filter-19">
            <feOffset dx="2" dy="2" in="SourceAlpha" result="shadowOffsetOuter1"></feOffset>
            <feGaussianBlur stdDeviation="0.5" in="shadowOffsetOuter1" result="shadowBlurOuter1"></feGaussianBlur>
            <feColorMatrix values="0 0 0 0 0.290221632   0 0 0 0 0.290175289   0 0 0 0 0.290237457  0 0 0 1 0" type="matrix" in="shadowBlurOuter1"></feColorMatrix>
        </filter>
        <path d="M89.753282,190.949081 C89.6963373,190.646203 89.7508162,190.355617 89.9167203,190.077313 L91.1932539,187.935932 L90.6443802,187.608734 L91.1994763,186.870904 L91.6633132,187.14741 L92.1702399,186.297042 L93.1887458,186.767988 L92.6219096,187.718854 L93.4722774,188.225781 L93.0022181,189.014304 L92.1518503,188.507377 L91.1103464,190.254496 C90.9874544,190.460647 90.9137952,190.610575 90.8893666,190.704283 C90.8649379,190.797992 90.8831755,190.878715 90.9440798,190.946456 C91.0049841,191.014196 91.133356,191.106438 91.3291992,191.223186 L91.5920402,191.379872 L91.0369441,192.117702 L90.3489192,191.707553 C90.0087704,191.504781 89.8102267,191.25196 89.753282,190.949081 Z M93.9558355,193.168226 C93.7204567,192.81308 93.6004233,192.43494 93.5957317,192.033794 C93.5910401,191.632649 93.6863075,191.236039 93.8815368,190.843953 C94.0687429,190.46798 94.3177791,190.163017 94.6286529,189.929053 C94.9395268,189.695089 95.288795,189.559004 95.6764682,189.520794 C96.0641414,189.482584 96.4620716,189.565103 96.8702707,189.768356 C97.2462437,189.955562 97.5256953,190.191895 97.708634,190.477362 C97.8915727,190.762829 97.9833138,191.06991 97.9838601,191.398613 C97.9844063,191.727316 97.9031123,192.05548 97.7399755,192.383113 C97.6597443,192.544245 97.5473332,192.71616 97.4027387,192.898865 L94.800482,191.603137 C94.6776838,191.98437 94.6856179,192.318422 94.8242845,192.605305 C94.9629511,192.892187 95.1907268,193.114519 95.5076182,193.272307 C95.9426726,193.488932 96.4003185,193.579402 96.8805697,193.543721 L96.5076972,194.413725 C96.2903595,194.419453 96.0535191,194.393685 95.7971689,194.33642 C95.5408187,194.279155 95.2783715,194.183664 95.0098195,194.049946 C94.5425388,193.817275 94.1912144,193.523372 93.9558355,193.168226 Z M96.7890383,191.748755 C96.8933389,191.539285 96.9265228,191.324569 96.8885911,191.104601 C96.8506593,190.884634 96.7081616,190.713142 96.4610937,190.590121 C96.2140258,190.4671 95.9791967,190.440657 95.7565995,190.510793 C95.5340023,190.580929 95.335678,190.723471 95.1616208,190.938424 L96.7890383,191.748755 Z M99.4996377,195.464672 C99.2399727,195.143932 99.0892082,194.786106 99.0473395,194.391183 C99.0054709,193.996259 99.0615931,193.597015 99.2157079,193.193438 C99.3719632,192.784255 99.5978454,192.445021 99.8933613,192.175723 C100.188877,191.906426 100.54171,191.739304 100.951871,191.674353 C101.362032,191.609401 101.808131,191.668965 102.290182,191.853046 C102.721785,192.017864 103.063083,192.250956 103.314086,192.552332 L102.908937,193.361006 C102.666188,193.088473 102.382266,192.890136 102.057162,192.765988 C101.65919,192.614013 101.302084,192.615729 100.985834,192.771135 C100.669584,192.926541 100.435475,193.203226 100.2835,193.601198 C100.137948,193.982354 100.132453,194.341523 100.267016,194.678716 C100.401579,195.015909 100.659435,195.257278 101.040591,195.402831 C101.36009,195.524838 101.714901,195.554359 102.105036,195.491394 L101.860397,196.409532 C101.679089,196.430212 101.47758,196.42391 101.255865,196.390624 C101.03415,196.357338 100.811191,196.297887 100.586982,196.212267 C100.121747,196.034607 99.7593027,195.785411 99.4996377,195.464672 Z M108.403068,194.206075 C108.568531,194.638077 108.562056,195.162427 108.38364,195.779141 L107.688323,198.182584 L106.616284,197.872442 L107.289091,195.546809 C107.407478,195.137587 107.427902,194.818705 107.350363,194.590153 C107.272824,194.3616 107.089965,194.20564 106.801781,194.122269 C106.461724,194.02389 106.14634,194.066938 105.85562,194.251414 L104.947706,197.389722 L103.875667,197.079581 L105.751522,190.595472 L106.823562,190.905614 L106.11824,193.343638 C106.322832,193.284152 106.523216,193.249995 106.719398,193.241166 C106.91558,193.232338 107.120296,193.258771 107.333552,193.320466 C107.881102,193.478873 108.237604,193.774073 108.403068,194.206075 Z M110.954678,194.110194 L111.979574,194.308998 L111.937261,194.621662 C112.357476,194.440363 112.776681,194.390275 113.194888,194.471396 C113.74268,194.577654 114.122517,194.840798 114.33441,195.260836 C114.546303,195.680873 114.592264,196.200122 114.472295,196.818597 L113.994137,199.28365 L112.898558,199.071135 L113.359578,196.694435 C113.439557,196.282119 113.429474,195.963878 113.329329,195.739705 C113.229184,195.515532 113.025969,195.373741 112.719676,195.314328 C112.383933,195.249202 112.082531,195.322141 111.815462,195.533147 L111.193342,198.740366 L110.097763,198.527852 L110.954678,194.110194 Z M117.077353,193.172497 L118.186669,193.29446 L118.064706,194.403775 L116.955391,194.281813 L117.077353,193.172497 Z M116.880639,194.961716 L117.989955,195.083678 L117.498171,199.556725 L116.388855,199.434763 L116.880639,194.961716 Z M120.774265,199.560194 C120.431841,199.329879 120.182619,199.032124 120.026593,198.666921 C119.870566,198.301718 119.806938,197.903601 119.835706,197.472558 C119.864875,197.035528 119.981145,196.644907 120.184521,196.300685 C120.387896,195.956463 120.676074,195.693072 121.049061,195.510505 C121.422049,195.327937 121.865965,195.253836 122.380822,195.288199 C122.841799,195.318965 123.236509,195.441522 123.564966,195.655872 L123.415231,196.547881 C123.103136,196.358676 122.773479,196.252488 122.42625,196.229313 C122.001194,196.200944 121.660346,196.30748 121.403696,196.548926 C121.147046,196.790372 121.004538,197.123618 120.976169,197.548675 C120.948999,197.955771 121.049249,198.30071 121.276923,198.5835 C121.504598,198.866291 121.821978,199.02127 122.229075,199.04844 C122.570317,199.071216 122.918147,198.995211 123.272576,198.820425 L123.308424,199.76992 C123.141189,199.842946 122.946719,199.896113 122.725007,199.929422 C122.503296,199.962732 122.272709,199.971395 122.033241,199.955412 C121.536344,199.922248 121.11669,199.79051 120.774265,199.560194 Z M125.494398,199.615762 C125.246704,199.371429 125.123969,199.042269 125.126189,198.628273 C125.128281,198.238277 125.270959,197.925541 125.554227,197.690055 C125.837496,197.45457 126.171389,197.28836 126.555916,197.19142 C126.940443,197.094481 127.309732,197.040961 127.663793,197.03086 C127.653209,196.766798 127.586725,196.577441 127.464337,196.462782 C127.34195,196.348124 127.13976,196.290039 126.857763,196.288526 C126.659765,196.287464 126.466125,196.313426 126.276837,196.366412 C126.087549,196.419398 125.869588,196.505229 125.622946,196.623908 L125.528823,195.714391 C126.076234,195.453321 126.622929,195.324253 127.168923,195.327181 C127.696918,195.330013 128.099636,195.476174 128.377089,195.765667 C128.654542,196.055161 128.791577,196.514898 128.788198,197.144892 L128.781681,198.359875 C128.780458,198.587873 128.790081,198.751425 128.81055,198.850537 C128.831019,198.949648 128.86668,199.01284 128.917535,199.040113 C128.96839,199.067386 129.053815,199.081345 129.173814,199.081988 L129.317812,199.082761 L129.21389,200.000216 L128.808896,199.998044 C128.562898,199.996725 128.356152,199.949116 128.188653,199.855216 C128.021153,199.761315 127.89284,199.633127 127.80371,199.470646 C127.658842,199.631872 127.461663,199.758315 127.212167,199.849978 C126.96267,199.941642 126.699927,199.986733 126.42393,199.985253 C126.051933,199.983258 125.742093,199.860095 125.494398,199.615762 Z M127.283962,199.049352 C127.428266,198.993125 127.55469,198.914302 127.663236,198.812883 L127.668738,197.786897 C127.308645,197.802966 126.990235,197.879259 126.713497,198.015777 C126.43676,198.152296 126.297733,198.343551 126.296414,198.589549 C126.295416,198.775547 126.342683,198.912301 126.438215,198.999815 C126.533748,199.087329 126.686511,199.131649 126.896509,199.132775 C127.010508,199.133387 127.139658,199.105579 127.283962,199.049352 Z M131.597776,199.445678 C131.393136,199.238439 131.280507,198.961128 131.259887,198.613738 L130.924455,192.962684 L132.038494,192.896557 L132.346729,198.089417 C132.36095,198.328997 132.38447,198.497398 132.417288,198.594624 C132.450107,198.691851 132.501577,198.748901 132.571701,198.765776 C132.641824,198.78265 132.760737,198.78611 132.928443,198.776156 L132.884011,199.698409 L132.479723,199.722406 C132.096395,199.74516 131.802416,199.652918 131.597776,199.445678 Z M137.83198,194.466349 L138.86468,194.313156 L138.928707,194.622105 C139.264759,194.31143 139.643475,194.12484 140.064866,194.06233 C140.616829,193.980451 141.062538,194.102367 141.402009,194.428081 C141.741479,194.753796 141.957433,195.228239 142.049877,195.851422 L142.418333,198.335242 L141.314413,198.499 L140.959164,196.104206 C140.897534,195.68875 140.782237,195.391959 140.613268,195.213824 C140.444299,195.035688 140.205506,194.969513 139.896882,195.015295 C139.558582,195.065479 139.298566,195.23446 139.116827,195.522245 L139.596215,198.753881 L138.492295,198.917639 L137.83198,194.466349 Z M145.481772,197.265635 C145.094655,197.141757 144.769707,196.929109 144.506919,196.627685 C144.244132,196.326261 144.063508,195.968322 143.965043,195.553855 C143.866577,195.139389 143.866222,194.735539 143.963976,194.342294 C144.06173,193.949049 144.255623,193.610056 144.545662,193.325305 C144.835701,193.040554 145.211298,192.843401 145.672465,192.733841 C146.133632,192.624281 146.557768,192.63144 146.944885,192.755318 C147.332003,192.879196 147.657644,193.094762 147.921818,193.402024 C148.185992,193.709285 148.36731,194.070143 148.465775,194.48461 C148.56424,194.899076 148.563903,195.300007 148.464762,195.687415 C148.365621,196.074822 148.171034,196.410897 147.880995,196.695648 C147.590956,196.980399 147.215359,197.177551 146.754192,197.287111 C146.293025,197.396671 145.868889,197.389512 145.481772,197.265635 Z M147.288782,195.818786 C147.430544,195.519925 147.452192,195.163267 147.353726,194.748801 C147.253874,194.328497 147.073089,194.015306 146.811366,193.809218 C146.549643,193.60313 146.240741,193.542386 145.88465,193.626983 C145.528559,193.71158 145.279983,193.904765 145.138915,194.206545 C144.997847,194.508324 144.977239,194.86936 145.077091,195.289664 C145.175557,195.704131 145.355302,196.012944 145.616331,196.216113 C145.877361,196.419282 146.185916,196.478567 146.542007,196.39397 C146.898098,196.309373 147.147021,196.117647 147.288782,195.818786 Z M151.405398,195.409678 C151.137832,195.256752 150.951839,195.026937 150.847414,194.720224 L150.043928,192.360254 L149.439026,192.566202 L149.236874,191.66528 L149.748059,191.49124 L149.428985,190.554068 L150.447725,190.083628 L150.804508,191.131557 L151.74168,190.812483 L152.037549,191.681497 L151.100377,192.000571 L151.755929,193.926034 C151.83328,194.153228 151.899722,194.306491 151.955255,194.385827 C152.010788,194.465162 152.084083,194.503589 152.175143,194.501109 C152.266203,194.498628 152.419648,194.460646 152.635483,194.387162 L152.925155,194.28854 L153.127306,195.189461 L152.369048,195.447621 C151.994178,195.575251 151.672964,195.562604 151.405398,195.409678 Z M155.828306,193.666669 C155.405571,193.613503 155.040625,193.457899 154.733459,193.199851 C154.426292,192.941804 154.187752,192.610936 154.01783,192.207238 C153.854892,191.820129 153.786107,191.432456 153.811474,191.044206 C153.836841,190.655956 153.961448,190.30243 154.185299,189.983618 C154.40915,189.664806 154.731215,189.416951 155.151504,189.240046 C155.538612,189.077108 155.900018,189.019379 156.235732,189.06686 C156.571446,189.11434 156.864071,189.245051 157.113616,189.458999 C157.363161,189.672946 157.558925,189.948584 157.700914,190.285921 C157.770745,190.451825 157.827765,190.649156 157.871977,190.877922 L155.192648,192.005685 C155.401577,192.347396 155.659995,192.559231 155.967911,192.641196 C156.275826,192.723162 156.592917,192.695478 156.919194,192.558144 C157.367133,192.369601 157.734169,192.081661 158.020311,191.694315 L158.436692,192.544355 C158.299299,192.712853 158.125311,192.875597 157.914722,193.03259 C157.704132,193.189583 157.460589,193.32627 157.184083,193.442655 C156.702962,193.645164 156.251041,193.719835 155.828306,193.666669 Z M156.599863,190.593131 C156.509083,190.377457 156.367948,190.212275 156.176455,190.09758 C155.984961,189.982886 155.762025,189.979076 155.50764,190.08615 C155.253254,190.193224 155.080066,190.354003 154.988071,190.568491 C154.896075,190.78298 154.874801,191.026287 154.924246,191.298419 L156.599863,190.593131 Z M161.002114,191.318983 C160.76805,191.384553 160.513089,191.427332 160.237225,191.447319 L159.869246,190.561594 C160.162281,190.573248 160.422923,190.559812 160.651182,190.521284 C160.879441,190.482756 161.096404,190.407692 161.302077,190.296089 C161.702876,190.078607 161.831733,189.838028 161.688652,189.574345 C161.611389,189.431956 161.499276,189.351144 161.352309,189.331908 C161.205342,189.312672 160.966131,189.324719 160.634668,189.368049 C160.167154,189.437419 159.79175,189.431212 159.508446,189.349427 C159.225142,189.267641 158.999077,189.071178 158.830242,188.760032 C158.644237,188.417244 158.625129,188.067523 158.772918,187.710859 C158.920706,187.354195 159.218726,187.054249 159.666988,186.811013 C160.11525,186.567776 160.579753,186.44884 161.060513,186.4542 L161.428491,187.339925 C161.15369,187.311551 160.907928,187.30838 160.691197,187.330413 C160.474467,187.352445 160.268542,187.4164 160.073417,187.52228 C159.904659,187.613851 159.792738,187.718953 159.73765,187.837589 C159.682562,187.956225 159.689357,188.078825 159.758035,188.205393 C159.812406,188.305593 159.884446,188.37231 159.974159,188.405547 C160.063872,188.438784 160.172419,188.453267 160.299804,188.448997 C160.427189,188.444726 160.631223,188.424462 160.911911,188.388203 C161.377014,188.326969 161.741871,188.338899 162.006492,188.423996 C162.271113,188.509092 162.483545,188.6993 162.643795,188.994626 C162.846969,189.369056 162.869879,189.732073 162.712525,190.083688 C162.55517,190.435303 162.228636,190.745602 161.732911,191.014593 C161.479775,191.15195 161.236178,191.253412 161.002114,191.318983 Z" id="path-20"></path>
        <filter x="-50%" y="-50%" width="200%" height="200%" filterUnits="objectBoundingBox" id="filter-21">
            <feOffset dx="0" dy="1" in="SourceAlpha" result="shadowOffsetOuter1"></feOffset>
            <feColorMatrix values="0 0 0 0 0.031372549   0 0 0 0 0.376470588   0 0 0 0 0.349019608  0 0 0 1 0" type="matrix" in="shadowOffsetOuter1"></feColorMatrix>
        </filter>
        <ellipse id="path-22" cx="124.314361" cy="125.314361" rx="50" ry="50"></ellipse>
        <filter x="-50%" y="-50%" width="200%" height="200%" filterUnits="objectBoundingBox" id="filter-23">
            <feOffset dx="2" dy="2" in="SourceAlpha" result="shadowOffsetOuter1"></feOffset>
            <feGaussianBlur stdDeviation="0.5" in="shadowOffsetOuter1" result="shadowBlurOuter1"></feGaussianBlur>
            <feComposite in="shadowBlurOuter1" in2="SourceAlpha" operator="out" result="shadowBlurOuter1"></feComposite>
            <feColorMatrix values="0 0 0 0 0.290196078   0 0 0 0 0.290196078   0 0 0 0 0.290196078  0 0 0 0.15 0" type="matrix" in="shadowBlurOuter1"></feColorMatrix>
        </filter>
        <mask id="mask-24" maskContentUnits="userSpaceOnUse" maskUnits="objectBoundingBox" x="0" y="0" width="100" height="100" fill="white">
            <use xlink:href="#path-22"></use>
        </mask>
        <mask id="mask-25" maskContentUnits="userSpaceOnUse" maskUnits="objectBoundingBox" x="-1" y="-1" width="102" height="102">
            <rect x="73.3143607" y="74.3143607" width="102" height="102" fill="white"></rect>
            <use xlink:href="#path-22" fill="black"></use>
        </mask>
        <path d="M40.451399,92 C35.8855809,101.330514 33,116.766359 33,116.766359 L50.6740548,108.397574 L64.2357054,124.795149 C64.2357054,124.795149 65.5569928,112.858576 69.8824042,102.610568 C69.8824042,102.610568 40.451399,92 40.451399,92 Z" id="path-26"></path>
        <filter x="-50%" y="-50%" width="200%" height="200%" filterUnits="objectBoundingBox" id="filter-27">
            <feMorphology radius="1" operator="dilate" in="SourceAlpha" result="shadowSpreadOuter1"></feMorphology>
            <feOffset dx="2" dy="2" in="shadowSpreadOuter1" result="shadowOffsetOuter1"></feOffset>
            <feGaussianBlur stdDeviation="0.5" in="shadowOffsetOuter1" result="shadowBlurOuter1"></feGaussianBlur>
            <feComposite in="shadowBlurOuter1" in2="SourceAlpha" operator="out" result="shadowBlurOuter1"></feComposite>
            <feColorMatrix values="0 0 0 0 0.290196078   0 0 0 0 0.290196078   0 0 0 0 0.290196078  0 0 0 0.15 0" type="matrix" in="shadowBlurOuter1"></feColorMatrix>
        </filter>
        <path d="M208.431005,92 C212.996823,101.330514 215.882404,116.766359 215.882404,116.766359 L198.208349,108.397574 L184.646699,124.795149 C184.646699,124.795149 183.325411,112.858576 179,102.610568" id="path-28"></path>
        <filter x="-50%" y="-50%" width="200%" height="200%" filterUnits="objectBoundingBox" id="filter-29">
            <feMorphology radius="1" operator="dilate" in="SourceAlpha" result="shadowSpreadOuter1"></feMorphology>
            <feOffset dx="2" dy="2" in="shadowSpreadOuter1" result="shadowOffsetOuter1"></feOffset>
            <feGaussianBlur stdDeviation="0.5" in="shadowOffsetOuter1" result="shadowBlurOuter1"></feGaussianBlur>
            <feComposite in="shadowBlurOuter1" in2="SourceAlpha" operator="out" result="shadowBlurOuter1"></feComposite>
            <feColorMatrix values="0 0 0 0 0.290196078   0 0 0 0 0.290196078   0 0 0 0 0.290196078  0 0 0 0.15 0" type="matrix" in="shadowBlurOuter1"></feColorMatrix>
        </filter>
        <path d="M211.98867,92.58045 C199.082842,56.674762 164.756179,31 124.438354,31 C84.2365645,31 49.9915013,56.5271905 37,92.2706944 L71.769794,104.925864 C80.16862,84.0601543 100.585185,69.3327936 124.438354,69.3327936 C148.407979,69.3327936 168.90736,84.2043076 177.229067,105.231911 L211.98867,92.58045 Z" id="path-30"></path>
        <filter x="-50%" y="-50%" width="200%" height="200%" filterUnits="objectBoundingBox" id="filter-31">
            <feMorphology radius="2" operator="dilate" in="SourceAlpha" result="shadowSpreadOuter1"></feMorphology>
            <feOffset dx="2" dy="2" in="shadowSpreadOuter1" result="shadowOffsetOuter1"></feOffset>
            <feGaussianBlur stdDeviation="0.5" in="shadowOffsetOuter1" result="shadowBlurOuter1"></feGaussianBlur>
            <feComposite in="shadowBlurOuter1" in2="SourceAlpha" operator="out" result="shadowBlurOuter1"></feComposite>
            <feColorMatrix values="0 0 0 0 0.290196078   0 0 0 0 0.290196078   0 0 0 0 0.290196078  0 0 0 0.15 0" type="matrix" in="shadowBlurOuter1"></feColorMatrix>
        </filter>
        <mask id="mask-32" maskContentUnits="userSpaceOnUse" maskUnits="objectBoundingBox" x="-2" y="-2" width="178.98867" height="78.2319107">
            <rect x="35" y="29" width="178.98867" height="78.2319107" fill="white"></rect>
            <use xlink:href="#path-30" fill="black"></use>
        </mask>
        <path d="M73.1393805,67.5615987 C74.0377531,67.5331258 74.9972853,67.9181837 76.0180059,68.716784 L80.015808,71.8446194 L78.7735472,73.4323989 L74.8608046,70.3711133 C74.1992265,69.853502 73.6279806,69.5855912 73.1470499,69.5673729 C72.6661191,69.5491546 72.2260102,69.7952219 71.8267101,70.3055822 C71.3904377,70.8631981 71.246296,71.3979625 71.3942806,71.9098916 C71.5422651,72.4218207 71.89506,72.8959143 72.4526759,73.3321867 L76.4221248,76.4378388 L75.1909556,78.0114418 L71.3774493,75.0277974 C70.6591645,74.4658195 70.0498086,74.1833281 69.5493634,74.1803148 C69.0489181,74.1773015 68.6064465,74.4215202 68.2219353,74.9129783 C67.6969296,75.5840075 67.5302126,76.283944 67.7217795,77.0128088 L72.8395333,81.0168817 L71.5972724,82.6046613 L64.5656772,77.1032204 L65.5971973,75.7847963 L66.2986092,76.1735911 C66.2857335,75.1579117 66.5861607,74.2578642 67.1998998,73.4734216 C67.9541334,72.5094078 68.8783249,72.0973864 69.9725021,72.2373453 C69.8056153,71.7106273 69.7824303,71.1706471 69.9029464,70.6173885 C70.0234625,70.0641299 70.290761,69.5228775 70.7048501,68.993615 C71.4295059,68.0674056 72.2410079,67.5900716 73.1393805,67.5615987 Z M75.0756728,61.6186803 L76.6479123,60.3568091 L77.9435837,61.9711622 L76.3713442,63.2330334 L75.0756728,61.6186803 Z M77.3740811,64.4824023 L78.9463206,63.220531 L84.5346074,70.183306 L82.9623679,71.4451772 L77.3740811,64.4824023 Z M81.3619562,61.5683578 L82.8195089,60.5431437 L83.3177063,61.0949982 C83.5908735,60.1692957 84.1249654,59.4268504 84.9199982,58.8676399 C85.8720744,58.1979681 86.7942309,57.9968074 87.6864952,58.2641518 C88.5787596,58.5314961 89.3942346,59.1902727 90.1329447,60.2405011 L92.9911174,64.3039815 L91.3568916,65.453464 L88.5712088,61.4930429 C88.0603252,60.7667167 87.5623816,60.3247253 87.0773632,60.1670556 C86.5923448,60.0093859 86.0602946,60.1342123 85.4811966,60.5415384 C84.7548704,61.0524221 84.4009016,61.6755078 84.4192797,62.4108143 L88.1473309,67.7110062 L86.4983824,68.8708443 L81.3619562,61.5683578 Z M89.7391924,52.4830285 L91.5421987,51.5811281 L92.4682571,53.4324293 L90.6652507,54.3343296 L89.7391924,52.4830285 Z M91.3819394,55.7670757 L93.1849457,54.8651754 L97.1790756,62.8499177 L95.3760693,63.751818 L91.3819394,55.7670757 Z M95.8986413,53.7600159 L97.5400254,53.0661989 L97.910262,53.7109228 C98.3730007,52.8639174 99.0520123,52.2512001 99.9473173,51.8727526 C101.019473,51.41955 101.963313,51.4179372 102.778868,51.867914 C103.594423,52.3178908 104.252153,53.1342103 104.752077,54.3168971 L106.686355,58.8928772 L104.846015,59.6707932 L102.960795,55.2108705 C102.615053,54.3929376 102.221833,53.8556462 101.781123,53.59898 C101.340413,53.3423139 100.793999,53.3518103 100.141863,53.6274696 C99.3239302,53.9732118 98.8462083,54.5073574 98.708683,55.2299224 L101.231654,61.1985922 L99.3747343,61.9835164 L95.8986413,53.7600159 Z M110.597421,62.4489272 C109.746379,62.1953234 109.220064,61.6731754 109.01846,60.8824677 C108.799068,60.0219917 109.102375,59.2202075 109.928391,58.4770909 C109.328045,58.3081756 108.967099,57.9853477 108.845544,57.5085975 C108.703236,56.9504509 108.906127,56.4590963 109.454225,56.0345188 C108.923647,55.847815 108.476917,55.5406673 108.114022,55.1130666 C107.751127,54.6854659 107.4926,54.1693439 107.338432,53.5646851 C107.175371,52.9251421 107.167411,52.3110785 107.314552,51.7224759 C107.461694,51.1338732 107.761256,50.6209666 108.213249,50.1837407 C108.665242,49.7465147 109.257513,49.4345165 109.99008,49.2477367 C110.780788,49.0461331 111.511419,49.0703713 112.181996,49.3204519 C112.370316,49.1362129 112.62561,48.9596676 112.947884,48.7908109 C113.270159,48.6219541 113.628967,48.4871268 114.024321,48.386325 L114.425487,48.2840413 L114.584254,49.562447 L113.9389,49.7269903 C113.717967,49.7833207 113.502967,49.862906 113.293893,49.9657487 C113.840219,50.4085006 114.209731,51.0077794 114.40244,51.7636029 C114.565502,52.4031459 114.574203,53.0201165 114.428544,53.6145331 C114.282885,54.2089498 113.981897,54.7284115 113.525573,55.1729338 C113.069249,55.6174562 112.474812,55.9331025 111.742244,56.1198824 C111.416659,56.2028956 111.073405,56.2408785 110.712474,56.2338321 C110.544213,56.3510365 110.480837,56.491033 110.522344,56.6538258 C110.557921,56.7933624 110.677684,56.8866647 110.881637,56.9337354 C111.08559,56.980806 111.385355,56.978679 111.780939,56.9273542 L113.62673,56.7353782 C115.674653,56.5104425 116.875,57.0898351 117.227806,58.4735736 C117.453128,59.3573057 117.253788,60.1418696 116.629781,60.8272889 C116.005774,61.5127081 115.030986,62.0244013 113.705387,62.3623839 C112.484442,62.6736836 111.448463,62.7025311 110.597421,62.4489272 Z M112.51931,53.7762454 C112.731214,53.3445061 112.760082,52.8263147 112.605915,52.2216559 C112.451747,51.6169971 112.179031,51.1787953 111.787759,50.9070374 C111.396487,50.6352795 110.921785,50.5705558 110.363638,50.7128642 C109.805492,50.8551727 109.420472,51.1421923 109.208568,51.5739316 C108.996663,52.005671 108.966313,52.5180484 109.117516,53.1110792 C109.271683,53.715738 109.54514,54.1568468 109.937895,54.4344187 C110.330649,54.7119906 110.806093,54.7796213 111.364239,54.6373129 C111.922386,54.4950044 112.307406,54.2079848 112.51931,53.7762454 Z M115.462411,59.0537205 C115.382362,58.739763 115.190031,58.5318376 114.88541,58.4299379 C114.58079,58.3280382 114.13174,58.3032131 113.538248,58.3554618 L111.360713,58.5577179 C111.06774,58.7686398 110.852749,59.0061159 110.715734,59.2701534 C110.57872,59.5341909 110.547272,59.8115562 110.621391,60.1022576 C110.734052,60.5441236 111.032921,60.817764 111.518007,60.9231869 C112.003093,61.0286098 112.635166,60.9820026 113.414246,60.7833637 C114.972405,60.386086 115.65512,59.809544 115.462411,59.0537205 Z M122.726877,49.712251 L121.342788,49.7850137 L121.473443,48.155908 L122.64183,48.094485 L122.537883,46.1172154 C122.495674,45.3143201 122.690126,44.6702298 123.121246,44.1849252 C123.552365,43.6996207 124.187338,43.434923 125.026184,43.3908242 C125.565442,43.362475 126.047925,43.3971927 126.473647,43.4949784 L126.344883,45.1600344 C126.088819,45.0893795 125.828972,45.0609823 125.565335,45.0748419 C124.846324,45.1126408 124.507299,45.5209983 124.548247,46.2999266 L124.637075,47.9895934 L126.758146,47.878087 L126.843193,49.495853 L124.722122,49.6073594 L125.105779,56.9052818 L123.110535,57.0101734 L122.726877,49.712251 Z M130.324279,56.7000495 C129.655641,56.2616649 129.151205,55.6821141 128.810958,54.9613798 C128.47071,54.2406454 128.315942,53.4545647 128.346648,52.6031139 C128.377354,51.7516632 128.588345,50.978773 128.979625,50.2844201 C129.370906,49.5900673 129.915778,49.0483582 130.614257,48.6592766 C131.312737,48.270195 132.123667,48.0923075 133.047071,48.1256087 C133.982468,48.1593424 134.784473,48.395398 135.453112,48.8337827 C136.12175,49.2721673 136.623187,49.85161 136.957439,50.572128 C137.29169,51.2926461 137.443461,52.0786187 137.412754,52.9300695 C137.382048,53.7815202 137.174056,54.5545186 136.788771,55.2490877 C136.403487,55.9436568 135.861613,56.485474 135.163133,56.8745555 C134.464654,57.2636371 133.647728,57.4413084 132.712331,57.4075747 C131.788927,57.3742735 130.992917,57.1384341 130.324279,56.7000495 Z M134.627668,54.9910337 C135.084415,54.4791597 135.329219,53.7675273 135.362087,52.8561153 C135.394524,51.9566955 135.201509,51.2322757 134.783036,50.6828343 C134.364564,50.133393 133.765589,49.8446209 132.986091,49.8165095 C132.206594,49.7883981 131.591371,50.0333819 131.140404,50.5514683 C130.689437,51.0695546 130.447739,51.7782971 130.415303,52.6777169 C130.382434,53.589129 130.572343,54.3164386 130.985036,54.8596676 C131.397728,55.4028966 131.993814,55.6885625 132.773311,55.7166739 C133.552808,55.7447853 134.170921,55.5029077 134.627668,54.9910337 Z M140.6789,49.6206049 L142.465314,49.9580214 L142.36097,51.0923636 C142.752839,50.7633758 143.177392,50.5199455 143.63464,50.3620655 C144.091889,50.2041856 144.544546,50.1675626 144.992626,50.2521955 C145.110541,50.2744673 145.23802,50.3107574 145.375064,50.3610667 L144.835032,52.3473481 C144.657503,52.2527553 144.439035,52.180961 144.17962,52.131963 C143.790498,52.058466 143.407705,52.0808076 143.031228,52.1989887 C142.654751,52.3171697 142.372382,52.486706 142.184112,52.7076028 L141.038233,58.7743347 L139.021885,58.3934884 L140.6789,49.6206049 Z M148.241056,65.0421668 C147.674108,64.3586773 147.526341,63.6321712 147.797752,62.8626267 C148.093111,62.0251811 148.790584,61.5267987 149.890191,61.3674645 C149.484709,60.8936167 149.363791,60.4247049 149.527436,59.9607148 C149.71902,59.4175068 150.160602,59.1215341 150.852195,59.0727878 C150.514613,58.6228881 150.313646,58.1193811 150.249287,57.5622518 C150.184928,57.0051225 150.256522,56.4323288 150.464072,55.8438536 C150.683595,55.2214278 151.017961,54.7063192 151.467179,54.2985122 C151.916398,53.8907053 152.450344,53.6304898 153.069035,53.5178579 C153.687725,53.4052261 154.353541,53.4746362 155.066501,53.7260903 C155.836046,53.9975011 156.430219,54.423374 156.849038,55.0037217 C157.107963,54.9550719 157.418313,54.9500104 157.780099,54.988537 C158.141885,55.0270636 158.515158,55.1141783 158.899931,55.2498837 L159.290359,55.3875841 L158.712508,56.5389378 L158.084427,56.3174198 C157.869407,56.2415845 157.646408,56.1883835 157.415423,56.1578155 C157.623919,56.8294033 157.598449,57.5329837 157.339012,58.2685778 C157.119489,58.8910035 156.784125,59.4089413 156.332911,59.8224067 C155.881697,60.2358721 155.342926,60.5007481 154.716581,60.6170427 C154.090237,60.7333373 153.420594,60.6657585 152.707634,60.4143044 C152.390762,60.302547 152.084203,60.143529 151.787945,59.9372456 C151.582928,59.9412852 151.452482,60.0225217 151.396603,60.1809573 C151.348707,60.3167593 151.396498,60.4608583 151.539979,60.6132586 C151.683459,60.765659 151.93394,60.9303474 152.29143,61.1073288 L153.933092,61.9726275 C155.761162,62.9227585 156.437702,64.0711583 155.962733,65.4178613 C155.659391,66.2779405 155.057946,66.8197341 154.158379,67.0432583 C153.258811,67.2667825 152.163984,67.1510402 150.873866,66.6960279 C149.685598,66.2769377 148.808004,65.7256562 148.241056,65.0421668 Z M154.655291,58.8967091 C155.071265,58.6553205 155.383021,58.2403948 155.590571,57.6519195 C155.79812,57.0634443 155.814646,56.5475746 155.640148,56.1042949 C155.465651,55.6610152 155.106803,55.3435881 154.563595,55.152004 C154.020388,54.9604199 153.540804,54.9853218 153.124831,55.2267104 C152.708857,55.468099 152.399096,55.8773664 152.195538,56.4545249 C151.987989,57.0430001 151.970465,57.561699 152.142967,58.0106371 C152.315469,58.4595752 152.673318,58.7798315 153.216526,58.9714156 C153.759734,59.1629997 154.239318,59.1380978 154.655291,58.8967091 Z M154.172382,64.9200292 C154.280148,64.6144747 154.235655,64.3347521 154.038901,64.080853 C153.842146,63.8269539 153.482477,63.5569533 152.959883,63.2708432 L151.036616,62.2298784 C150.67584,62.2426061 150.365173,62.320721 150.104606,62.4642253 C149.844038,62.6077297 149.663866,62.8209391 149.564082,63.1038599 C149.412412,63.5338995 149.509016,63.9274338 149.853899,64.2844746 C150.198782,64.6415154 150.750329,64.9537408 151.508557,65.2211603 C153.025013,65.7559993 153.912945,65.6556232 154.172382,64.9200292 Z M159.009519,65.3425962 C158.589599,64.6622101 158.378225,63.9235252 158.375392,63.1265193 C158.372559,62.3295135 158.565421,61.5519015 158.953984,60.79366 C159.342547,60.0354185 159.861128,59.4247219 160.509741,58.9615518 C161.158355,58.4983817 161.88142,58.2385524 162.678958,58.182056 C163.476496,58.1255596 164.286411,58.3080083 165.10873,58.7294075 C165.941727,59.1562795 166.568177,59.7099002 166.988097,60.3902864 C167.408018,61.0706725 167.616721,61.8079893 167.614215,62.6022588 C167.611708,63.3965283 167.416176,64.1727721 167.027613,64.9310136 C166.63905,65.689255 166.12314,66.3013198 165.479866,66.7672263 C164.836592,67.2331327 164.116196,67.4943302 163.318659,67.5508266 C162.521121,67.607323 161.705865,67.422138 160.872868,66.9952661 C160.050549,66.5738668 159.42944,66.0229824 159.009519,65.3425962 Z M163.631654,65.6178465 C164.262253,65.3477046 164.785509,64.8068223 165.201435,63.9951836 C165.611889,63.1942243 165.743982,62.4562607 165.597718,61.7812707 C165.451453,61.1062807 165.031245,60.5909301 164.33708,60.2352035 C163.642916,59.8794768 162.981845,59.8407231 162.353849,60.1189411 C161.725852,60.3971592 161.206635,60.9367397 160.796181,61.737699 C160.380255,62.5493378 160.244124,63.288603 160.387785,63.955517 C160.531446,64.6224309 160.950352,65.1337435 161.644517,65.4894701 C162.338682,65.8451967 163.001054,65.8879884 163.631654,65.6178465 Z M166.88093,70.5144278 C166.823244,69.9478278 166.987296,69.396783 167.373091,68.8612771 L174.043802,59.6019382 L175.664917,60.7698388 L169.54133,69.2697366 C169.246723,69.6786684 169.062387,69.98586 168.988317,70.1913205 C168.914246,70.396781 168.922961,70.5694438 169.014463,70.7093141 C169.105965,70.8491843 169.302629,71.0278408 169.604459,71.2452888 L168.48634,72.4585727 L167.902155,72.0377077 C167.279021,71.5887827 166.938616,71.0810278 166.88093,70.5144278 Z M184.672941,68.2665462 L176.051435,78.6549839 L174.624756,77.4709638 L175.038304,76.8317346 C174.113447,76.8750885 173.263194,76.5748988 172.48752,75.9311565 C171.850359,75.4023682 171.423893,74.7794396 171.208108,74.0623521 C170.992323,73.3452646 170.979312,72.6093408 171.169075,71.8545585 C171.358837,71.0997763 171.725771,70.3945812 172.269886,69.7389521 C172.806338,69.0925572 173.427602,68.6023323 174.133695,68.2682627 C174.839788,67.9341931 175.564718,67.8028992 176.308506,67.8743771 C177.052294,67.945855 177.751992,68.2536471 178.407621,68.7977626 C179.155592,69.4185141 179.604203,70.1650806 179.753466,71.0374843 L183.121601,66.979068 L184.672941,68.2665462 Z M175.592945,75.3037704 C176.24106,75.1710934 176.860157,74.749244 177.450254,74.0382096 C178.032688,73.3364094 178.3309,72.648254 178.344901,71.9737227 C178.358902,71.2991913 178.098114,70.7396897 177.56253,70.2952009 C176.999243,69.8277214 176.381663,69.6699493 175.709772,69.8218801 C175.037881,69.9738108 174.422223,70.3868187 173.86278,71.0609163 C173.311001,71.7257796 173.022368,72.4023925 172.996871,73.0907751 C172.971375,73.7791578 173.240266,74.3570802 173.803553,74.8245598 C174.348372,75.2767121 174.94483,75.4364474 175.592945,75.3037704 Z" id="path-33"></path>
        <filter x="-50%" y="-50%" width="200%" height="200%" filterUnits="objectBoundingBox" id="filter-34">
            <feOffset dx="1" dy="1" in="SourceAlpha" result="shadowOffsetOuter1"></feOffset>
            <feColorMatrix values="0 0 0 0 0.031372549   0 0 0 0 0.376470588   0 0 0 0 0.349019608  0 0 0 1 0" type="matrix" in="shadowOffsetOuter1"></feColorMatrix>
        </filter>
        <filter x="-50%" y="-50%" width="200%" height="200%" filterUnits="objectBoundingBox" id="filter-35">
            <feOffset dx="2" dy="2" in="SourceAlpha" result="shadowOffsetOuter1"></feOffset>
            <feGaussianBlur stdDeviation="0.5" in="shadowOffsetOuter1" result="shadowBlurOuter1"></feGaussianBlur>
            <feColorMatrix values="0 0 0 0 0.290196078   0 0 0 0 0.290196078   0 0 0 0 0.290196078  0 0 0 0.15 0" type="matrix" in="shadowBlurOuter1" result="shadowMatrixOuter1"></feColorMatrix>
            <feMerge>
                <feMergeNode in="shadowMatrixOuter1"></feMergeNode>
                <feMergeNode in="SourceGraphic"></feMergeNode>
            </feMerge>
        </filter>
    </defs>
    <g id="Symbols" stroke="none" stroke-width="1" fill="none" fill-rule="evenodd">
        <g id="mining-crest">
            <g id="pick-l">
                <g id="handle" transform="translate(19.349210, 19.941655)">
                    <mask id="mask-2" fill="white">
                        <use xlink:href="#path-1"></use>
                    </mask>
                    <g id="Mask">
                        <use fill="#20948B" fill-rule="evenodd" xlink:href="#path-1"></use>
                        <use stroke="#FFFFFF" mask="url(#mask-3)" stroke-width="2" xlink:href="#path-1"></use>
                    </g>
                    <polygon id="dark" fill="#086059" mask="url(#mask-2)" points="1.61553586 3.27949871 9.25468656 10.9186494 16.4632801 3.71005588 35.5804343 26.7267423 22.9289831 19.8916616 19.7921013 23.0285433 112.464736 112.597675 116.372188 112.196109 117.795 107.373086 125.255679 119.318626 108.100768 131.444237 -12.9549795 7.00011595"></polygon>
                </g>
                <g id="pick" transform="translate(0.160912, 0.160912)">
                    <mask id="mask-5" fill="white">
                        <use xlink:href="#path-4"></use>
                    </mask>
                    <g id="Mask">
                        <use fill="#20948B" fill-rule="evenodd" xlink:href="#path-4"></use>
                        <use stroke="#FFFFFF" mask="url(#mask-6)" stroke-width="2" xlink:href="#path-4"></use>
                    </g>
                    <polygon id="dark" fill="#086059" mask="url(#mask-5)" points="0.0614534038 81.8502743 13.4512938 57.4706593 29.0213109 39.6863794 25.5592277 35.6561939 29.2652607 32.3144148 39.9074904 43.2273285 43.8708403 39.3348243 34.4176157 29.1845045 36.5663796 26.5197699 40.351947 27.5624049 61.7105937 10.9410642 85.5775799 -0.398260564 1.64746175 82.7652534"></polygon>
                </g>
            </g>
            <g id="pick-r" transform="translate(108.000000, 0.000000)">
                <g id="handle" transform="translate(0.000000, 20.287425)">
                    <mask id="mask-8" fill="white">
                        <use xlink:href="#path-7"></use>
                    </mask>
                    <g id="Mask">
                        <use fill="#20948B" fill-rule="evenodd" xlink:href="#path-7"></use>
                        <use stroke="#FFFFFF" mask="url(#mask-9)" stroke-width="2" xlink:href="#path-7"></use>
                    </g>
                    <polygon id="dark" fill="#086059" mask="url(#mask-8)" points="116.992334 3.18562874 109.38063 10.7973334 102.197935 3.614639 83.1494655 26.5486307 95.7554625 19.7381072 98.881074 22.8637187 6.54139439 112.111045 2.64798191 111.710922 1.23028108 106.905228 -6.20359281 118.807849 10.8896841 130.889895 131.510501 6.89287849"></polygon>
                </g>
                <g id="pick" transform="translate(59.688623, 0.000000)">
                    <mask id="mask-11" fill="white">
                        <use xlink:href="#path-10"></use>
                    </mask>
                    <g id="Mask">
                        <use fill="#20948B" fill-rule="evenodd" xlink:href="#path-10"></use>
                        <use stroke="#FFFFFF" mask="url(#mask-12)" stroke-width="2" xlink:href="#path-10"></use>
                    </g>
                    <polygon id="dark" fill="#086059" mask="url(#mask-11)" points="13.3490633 4.65342083 33.4673258 19.7752016 39.3324128 30.0612347 34.8120164 36.0512764 35.9647823 37.6679746 46.9044789 29.1075992 49.8364369 32.329613 39.3324128 40.866046 44.3571687 47.5655897 51.3192933 45.0465393 82.1719696 72.1339849 60.4739103 21.3051369"></polygon>
                </g>
            </g>
            <g id="burst" filter="url(#filter-13)" transform="translate(37.000000, 37.000000)">
                <mask id="mask-15" fill="white">
                    <use xlink:href="#path-14"></use>
                </mask>
                <use id="Combined-Shape" stroke="#FFFFFF" fill="#20948B" xlink:href="#path-14"></use>
                <g id="banner--l" mask="url(#mask-15)" fill-opacity="1" fill="black">
                    <use filter="url(#filter-17)" xlink:href="#path-16"></use>
                </g>
                <g id="banner--r" mask="url(#mask-15)" transform="translate(159.848576, 70.883524) scale(-1, 1) translate(-159.848576, -70.883524) " fill-opacity="1" fill="black">
                    <use filter="url(#filter-19)" xlink:href="#path-18"></use>
                </g>
            </g>
            <g id="technical-notes">
                <use fill="black" fill-opacity="1" filter="url(#filter-21)" xlink:href="#path-20"></use>
                <use fill="#FFFFFF" fill-rule="evenodd" xlink:href="#path-20"></use>
            </g>
            <g id="center">
                <use fill="black" fill-opacity="1" filter="url(#filter-23)" xlink:href="#path-22"></use>
                <use stroke="#20948B" mask="url(#mask-24)" stroke-width="2" fill="#FFFFFF" fill-rule="evenodd" xlink:href="#path-22"></use>
                <use stroke="#FFFFFF" mask="url(#mask-25)" stroke-width="2" xlink:href="#path-22"></use>
            </g>
            <g id="banner-l">
                <use fill="black" fill-opacity="1" filter="url(#filter-27)" xlink:href="#path-26"></use>
                <use stroke="#FFFFFF" stroke-width="2" fill="#20948B" fill-rule="evenodd" xlink:href="#path-26"></use>
            </g>
            <g id="banner-r">
                <use fill="black" fill-opacity="1" filter="url(#filter-29)" xlink:href="#path-28"></use>
                <use stroke="#FFFFFF" stroke-width="2" fill="#20948B" fill-rule="evenodd" xlink:href="#path-28"></use>
            </g>
            <g id="banner">
                <use fill="black" fill-opacity="1" filter="url(#filter-31)" xlink:href="#path-30"></use>
                <use fill="#20948B" fill-rule="evenodd" xlink:href="#path-30"></use>
                <use stroke="#FFFFFF" mask="url(#mask-32)" stroke-width="4" xlink:href="#path-30"></use>
            </g>
            <g id="Mining-for-Gold">
                <use fill="black" fill-opacity="1" filter="url(#filter-34)" xlink:href="#path-33"></use>
                <use fill="#FFFFFF" fill-rule="evenodd" xlink:href="#path-33"></use>
            </g>
            <path d="M99.0650756,150.370056 L151.224424,98.0965353" id="Line" stroke="#20948B" stroke-linecap="square"></path>
            <path d="M151.159348,150.27352 L99,98" id="Line" stroke="#20948B" stroke-linecap="square"></path>
            <path d="M119.897585,156.755 C119.500917,156.524999 119.202586,156.213335 119.002585,155.82 C118.802584,155.426665 118.702585,154.990002 118.702585,154.51 C118.702585,154.023331 118.802584,153.581669 119.002585,153.185 C119.202586,152.788331 119.502583,152.475001 119.902585,152.245 C120.302587,152.014999 120.789249,151.9 121.362585,151.9 C121.875921,151.9 122.322583,152.006666 122.702585,152.22 L122.602585,153.22 C122.242583,153.033332 121.869254,152.94 121.482585,152.94 C121.00925,152.94 120.639253,153.083332 120.372585,153.37 C120.105917,153.656668 119.972585,154.036664 119.972585,154.51 C119.972585,154.963336 120.109251,155.338332 120.382585,155.635 C120.65592,155.931668 121.01925,156.08 121.472585,156.08 C121.852587,156.08 122.232583,155.970001 122.612585,155.75 L122.722585,156.8 C122.542584,156.893334 122.33092,156.966666 122.087585,157.02 C121.844251,157.073334 121.589253,157.1 121.322585,157.1 C120.769249,157.1 120.294254,156.985001 119.897585,156.755 Z M124.097585,157.01 C123.834251,156.95 123.562587,156.856667 123.282585,156.73 L123.392585,155.67 C123.672587,155.836668 123.934251,155.961666 124.177585,156.045 C124.42092,156.128334 124.672584,156.17 124.932585,156.17 C125.439254,156.17 125.692585,156.003335 125.692585,155.67 C125.692585,155.489999 125.625919,155.351667 125.492585,155.255 C125.359251,155.158333 125.119254,155.043334 124.772585,154.91 C124.279249,154.729999 123.91592,154.525001 123.682585,154.295 C123.449251,154.064999 123.332585,153.753335 123.332585,153.36 C123.332585,152.926665 123.49925,152.575001 123.832585,152.305 C124.16592,152.034999 124.615916,151.9 125.182585,151.9 C125.749255,151.9 126.265916,152.029999 126.732585,152.29 L126.622585,153.35 C126.369251,153.176666 126.13092,153.043334 125.907585,152.95 C125.684251,152.856666 125.449253,152.81 125.202585,152.81 C124.989251,152.81 124.824252,152.853333 124.707585,152.94 C124.590918,153.026667 124.532585,153.149999 124.532585,153.31 C124.532585,153.436667 124.567585,153.54 124.637585,153.62 C124.707586,153.7 124.805918,153.771666 124.932585,153.835 C125.059253,153.898334 125.26925,153.986666 125.562585,154.1 C126.049254,154.286668 126.399251,154.491666 126.612585,154.715 C126.82592,154.938334 126.932585,155.236665 126.932585,155.61 C126.932585,156.083336 126.762587,156.449999 126.422585,156.71 C126.082584,156.970001 125.599255,157.1 124.972585,157.1 C124.652584,157.1 124.36092,157.07 124.097585,157.01 Z M128.327585,157.01 C128.064251,156.95 127.792587,156.856667 127.512585,156.73 L127.622585,155.67 C127.902587,155.836668 128.164251,155.961666 128.407585,156.045 C128.65092,156.128334 128.902584,156.17 129.162585,156.17 C129.669254,156.17 129.922585,156.003335 129.922585,155.67 C129.922585,155.489999 129.855919,155.351667 129.722585,155.255 C129.589251,155.158333 129.349254,155.043334 129.002585,154.91 C128.509249,154.729999 128.14592,154.525001 127.912585,154.295 C127.679251,154.064999 127.562585,153.753335 127.562585,153.36 C127.562585,152.926665 127.72925,152.575001 128.062585,152.305 C128.39592,152.034999 128.845916,151.9 129.412585,151.9 C129.979255,151.9 130.495916,152.029999 130.962585,152.29 L130.852585,153.35 C130.599251,153.176666 130.36092,153.043334 130.137585,152.95 C129.914251,152.856666 129.679253,152.81 129.432585,152.81 C129.219251,152.81 129.054252,152.853333 128.937585,152.94 C128.820918,153.026667 128.762585,153.149999 128.762585,153.31 C128.762585,153.436667 128.797585,153.54 128.867585,153.62 C128.937586,153.7 129.035918,153.771666 129.162585,153.835 C129.289253,153.898334 129.49925,153.986666 129.792585,154.1 C130.279254,154.286668 130.629251,154.491666 130.842585,154.715 C131.05592,154.938334 131.162585,155.236665 131.162585,155.61 C131.162585,156.083336 130.992587,156.449999 130.652585,156.71 C130.312584,156.970001 129.829255,157.1 129.202585,157.1 C128.882584,157.1 128.59092,157.07 128.327585,157.01 Z" id="css" fill="#20948B"></path>
            <path d="M121.85633,93 L123.09633,93 L123.09633,94.24 L121.85633,94.24 L121.85633,93 Z M121.25633,101.4 C121.489664,101.4 121.647996,101.343334 121.73133,101.23 C121.814663,101.116666 121.85633,100.906668 121.85633,100.6 L121.85633,95 L123.09633,95 L123.09633,101.11 C123.09633,101.610003 122.987997,101.953332 122.77133,102.14 C122.554662,102.326668 122.216332,102.42 121.75633,102.42 L121.36633,102.42 L121.25633,101.4 Z M124.80133,100.01 C124.537995,99.9499997 124.266331,99.8566673 123.98633,99.73 L124.09633,98.67 C124.376331,98.8366675 124.637995,98.9616663 124.88133,99.045 C125.124664,99.1283338 125.376328,99.17 125.63633,99.17 C126.142999,99.17 126.39633,99.003335 126.39633,98.67 C126.39633,98.4899991 126.329664,98.3516672 126.19633,98.255 C126.062996,98.1583329 125.822998,98.043334 125.47633,97.91 C124.982994,97.7299991 124.619664,97.5250012 124.38633,97.295 C124.152995,97.0649989 124.03633,96.7533353 124.03633,96.36 C124.03633,95.9266645 124.202995,95.5750014 124.53633,95.305 C124.869665,95.0349987 125.31966,94.9 125.88633,94.9 C126.452999,94.9 126.969661,95.0299987 127.43633,95.29 L127.32633,96.35 C127.072995,96.1766658 126.834664,96.0433338 126.61133,95.95 C126.387995,95.8566662 126.152997,95.81 125.90633,95.81 C125.692995,95.81 125.527997,95.8533329 125.41133,95.94 C125.294662,96.0266671 125.23633,96.1499992 125.23633,96.31 C125.23633,96.4366673 125.271329,96.5399996 125.34133,96.62 C125.41133,96.7000004 125.509662,96.7716664 125.63633,96.835 C125.762997,96.8983337 125.972995,96.9866661 126.26633,97.1 C126.752999,97.2866676 127.102995,97.4916656 127.31633,97.715 C127.529664,97.9383345 127.63633,98.2366648 127.63633,98.61 C127.63633,99.0833357 127.466331,99.4499987 127.12633,99.71 C126.786328,99.9700013 126.302999,100.1 125.67633,100.1 C125.356328,100.1 125.064664,100.07 124.80133,100.01 Z" id="js" fill="#20948B"></path>
            <path d="M144.203915,122 L145.363915,122 L145.393915,122.53 C145.540582,122.363333 145.728914,122.216667 145.958915,122.09 C146.188916,121.963333 146.43058,121.9 146.683915,121.9 C146.763915,121.9 146.837248,121.906667 146.903915,121.92 L146.813915,123.14 C146.687247,123.106666 146.543916,123.09 146.383915,123.09 C146.177247,123.09 145.987249,123.138333 145.813915,123.235 C145.640581,123.331667 145.517248,123.449999 145.443915,123.59 L145.443915,127 L144.203915,127 L144.203915,122 Z M147.958915,126.46 C147.622246,126.033331 147.453915,125.443337 147.453915,124.69 L147.453915,122 L148.693915,122 L148.693915,124.69 C148.693915,125.156669 148.772247,125.501666 148.928915,125.725 C149.085582,125.948334 149.337246,126.06 149.683915,126.06 C150.070583,126.06 150.383914,125.920001 150.623915,125.64 L150.623915,122 L151.863915,122 L151.863915,127 L150.703915,127 L150.683915,126.7 C150.530581,126.813334 150.353916,126.908333 150.153915,126.985 C149.953914,127.061667 149.760582,127.1 149.573915,127.1 C148.833911,127.1 148.295583,126.886669 147.958915,126.46 Z M156.843915,122.27 C157.183916,122.503334 157.440581,122.816665 157.613915,123.21 C157.787249,123.603335 157.873915,124.036664 157.873915,124.51 C157.873915,124.983336 157.787249,125.416665 157.613915,125.81 C157.440581,126.203335 157.183916,126.516665 156.843915,126.75 C156.503913,126.983335 156.09725,127.1 155.623915,127.1 C155.097245,127.1 154.620584,126.956668 154.193915,126.67 L154.173915,127 L153.013915,127 L153.013915,119.5 L154.253915,119.5 L154.253915,122.37 C154.660583,122.069998 155.117246,121.92 155.623915,121.92 C156.09725,121.92 156.503913,122.036665 156.843915,122.27 Z M156.298915,125.65 C156.502249,125.363332 156.603915,124.983336 156.603915,124.51 C156.603915,124.036664 156.502249,123.656668 156.298915,123.37 C156.09558,123.083332 155.810583,122.94 155.443915,122.94 C155.023913,122.94 154.710582,123.079999 154.503915,123.36 C154.297247,123.640001 154.193915,124.023331 154.193915,124.51 C154.193915,124.996669 154.297247,125.379999 154.503915,125.66 C154.710582,125.940001 155.023913,126.08 155.443915,126.08 C155.810583,126.08 156.09558,125.936668 156.298915,125.65 Z M160.133915,126.67 L158.053915,122 L159.433915,122 L160.713915,125.22 L162.013915,122 L163.393915,122 L160.263915,129.42 L159.023915,129.42 L160.133915,126.67 Z" id="ruby" fill="#20948B"></path>
            <path d="M92.4983485,122.27 C92.8383502,122.503334 93.0950143,122.816665 93.2683485,123.21 C93.4416827,123.603335 93.5283485,124.036664 93.5283485,124.51 C93.5283485,124.983336 93.4416827,125.416665 93.2683485,125.81 C93.0950143,126.203335 92.8383502,126.516665 92.4983485,126.75 C92.1583468,126.983335 91.7516842,127.1 91.2783485,127.1 C90.978347,127.1 90.7233495,127.068334 90.5133485,127.005 C90.3033474,126.941666 90.1016828,126.840001 89.9083485,126.7 L89.9083485,129.42 L88.6683485,129.42 L88.6683485,122 L89.6683485,122 L89.7983485,122.46 C90.0116829,122.279999 90.235014,122.145 90.4683485,122.055 C90.701683,121.965 90.9716803,121.92 91.2783485,121.92 C91.7516842,121.92 92.1583468,122.036665 92.4983485,122.27 Z M91.9483485,125.65 C92.1550162,125.363332 92.2583485,124.983336 92.2583485,124.51 C92.2583485,124.036664 92.1550162,123.656668 91.9483485,123.37 C91.7416808,123.083332 91.455017,122.94 91.0883485,122.94 C90.6750131,122.94 90.3650162,123.079999 90.1583485,123.36 C89.9516808,123.640001 89.8483485,124.023331 89.8483485,124.51 C89.8483485,124.996669 89.9516808,125.379999 90.1583485,125.66 C90.3650162,125.940001 90.6750131,126.08 91.0883485,126.08 C91.455017,126.08 91.7416808,125.936668 91.9483485,125.65 Z M98.3233485,122.535 C98.63335,122.945002 98.7883485,123.506663 98.7883485,124.22 L98.7883485,127 L97.5483485,127 L97.5483485,124.31 C97.5483485,123.836664 97.4716826,123.490001 97.3183485,123.27 C97.1650144,123.049999 96.9216835,122.94 96.5883485,122.94 C96.1950132,122.94 95.8716831,123.083332 95.6183485,123.37 L95.6183485,127 L94.3783485,127 L94.3783485,119.5 L95.6183485,119.5 L95.6183485,122.32 C95.8183495,122.193333 96.0216808,122.095 96.2283485,122.025 C96.4350162,121.955 96.6616806,121.92 96.9083485,121.92 C97.541685,121.92 98.0133469,122.124998 98.3233485,122.535 Z M103.728348,122.27 C104.06835,122.503334 104.325014,122.816665 104.498348,123.21 C104.671683,123.603335 104.758348,124.036664 104.758348,124.51 C104.758348,124.983336 104.671683,125.416665 104.498348,125.81 C104.325014,126.203335 104.06835,126.516665 103.728348,126.75 C103.388347,126.983335 102.981684,127.1 102.508348,127.1 C102.208347,127.1 101.95335,127.068334 101.743348,127.005 C101.533347,126.941666 101.331683,126.840001 101.138348,126.7 L101.138348,129.42 L99.8983485,129.42 L99.8983485,122 L100.898348,122 L101.028348,122.46 C101.241683,122.279999 101.465014,122.145 101.698348,122.055 C101.931683,121.965 102.20168,121.92 102.508348,121.92 C102.981684,121.92 103.388347,122.036665 103.728348,122.27 Z M103.178348,125.65 C103.385016,125.363332 103.488348,124.983336 103.488348,124.51 C103.488348,124.036664 103.385016,123.656668 103.178348,123.37 C102.971681,123.083332 102.685017,122.94 102.318348,122.94 C101.905013,122.94 101.595016,123.079999 101.388348,123.36 C101.181681,123.640001 101.078348,124.023331 101.078348,124.51 C101.078348,124.996669 101.181681,125.379999 101.388348,125.66 C101.595016,125.940001 101.905013,126.08 102.318348,126.08 C102.685017,126.08 102.971681,125.936668 103.178348,125.65 Z" id="php" fill="#20948B"></path>
            <g id="stars" filter="url(#filter-35)" transform="translate(62.000000, 10.000000)" stroke="#FFFFFF" fill="#20948B">
                <polygon id="1" points="5.71749687 23.017598 2.18388948 24.8753253 2.85874844 20.9405957 0 18.1540046 3.95069317 17.5799353 5.71749687 14 7.48430057 17.5799353 11.4349937 18.1540046 8.57624531 20.9405957 9.25110427 24.8753253"></polygon>
                <polygon id="2" points="33.7174969 13.017598 30.1838895 14.8753253 30.8587484 10.9405957 28 8.15400463 31.9506932 7.57993531 33.7174969 4 35.4843006 7.57993531 39.4349937 8.15400463 36.5762453 10.9405957 37.2511043 14.8753253"></polygon>
                <polygon id="3" points="62.7174969 9.01759797 59.1838895 10.8753253 59.8587484 6.94059565 57 4.15400463 60.9506932 3.57993531 62.7174969 0 64.4843006 3.57993531 68.4349937 4.15400463 65.5762453 6.94059565 66.2511043 10.8753253"></polygon>
                <polygon id="4" points="90.7174969 13.017598 87.1838895 14.8753253 87.8587484 10.9405957 85 8.15400463 88.9506932 7.57993531 90.7174969 4 92.4843006 7.57993531 96.4349937 8.15400463 93.5762453 10.9405957 94.2511043 14.8753253"></polygon>
                <polygon id="5" points="118.717497 23.017598 115.183889 24.8753253 115.858748 20.9405957 113 18.1540046 116.950693 17.5799353 118.717497 14 120.484301 17.5799353 124.434994 18.1540046 121.576245 20.9405957 122.251104 24.8753253"></polygon>
            </g>
        </g>
    </g>
</svg>